<svg xmlns="http://www.w3.org/2000/svg" width="19.461" height="19.464" viewBox="0 0 19.461 19.464">
  <g id="like" transform="translate(0.5 0.5)">
    <path id="Icon_ionic-ios-heart" d="M16.866,3.938h-.044a5.013,5.013,0,0,0-4.216,2.384A5.013,5.013,0,0,0,8.39,3.938H8.345a5.1,5.1,0,0,0-4.97,5.181A11.4,11.4,0,0,0,5.5,15.2a37.693,37.693,0,0,0,7.109,7.075A37.693,37.693,0,0,0,19.715,15.2a11.4,11.4,0,0,0,2.121-6.085A5.1,5.1,0,0,0,16.866,3.938Z" transform="translate(-3.375 -3.938)" fill="#a88bac" stroke="#a88bac" stroke-width="1"/>
  </g>
</svg>
