<svg xmlns="http://www.w3.org/2000/svg" width="19.461" height="19.461" viewBox="0 0 6.825 6.825">
  <g id="Icon_ionic-ios-person-add" transform="translate(-4.501 -4.5)">
    <path id="Path_32" d="M10.211,10.223a8.282,8.282,0,0,0-.926-.178.941.941,0,0,1-.428-.2,3.25,3.25,0,0,1-.03-.839.184.184,0,0,1,.02-.068,2.623,2.623,0,0,0,.183-.355,4.034,4.034,0,0,0,.135-.592.138.138,0,0,1,.071-.1.323.323,0,0,0,.139-.238,2.518,2.518,0,0,0,.132-.6.251.251,0,0,0-.057-.169.134.134,0,0,1-.036-.132,3.748,3.748,0,0,0,.092-.81A1.464,1.464,0,0,0,7.915,4.5,1.456,1.456,0,0,0,6.322,5.95a3.909,3.909,0,0,0,.091.81.141.141,0,0,1-.036.132.242.242,0,0,0-.057.169,2.518,2.518,0,0,0,.132.6.328.328,0,0,0,.139.238.142.142,0,0,1,.071.1,4.034,4.034,0,0,0,.135.592,2.724,2.724,0,0,0,.183.355A.125.125,0,0,1,7,9.009a3.247,3.247,0,0,1-.03.839.941.941,0,0,1-.428.2,8.282,8.282,0,0,0-.926.178c-.252.089-.983.364-1.111.93a.142.142,0,0,0,.14.172h6.539a.142.142,0,0,0,.139-.172C11.194,10.588,10.464,10.312,10.211,10.223Z" fill="#6775b9"/>
    <path id="Path_33" d="M26.27,18.667h-.48v-.48A.187.187,0,0,0,25.6,18h0a.187.187,0,0,0-.187.187v.48h-.48a.187.187,0,0,0-.187.187h0a.187.187,0,0,0,.187.187h.48v.48a.187.187,0,0,0,.187.187h0a.187.187,0,0,0,.187-.187v-.48h.48a.187.187,0,0,0,.187-.187h0A.187.187,0,0,0,26.27,18.667Z" transform="translate(-15.131 -10.087)" fill="#6775b9"/>
  </g>
</svg>
