<svg xmlns="http://www.w3.org/2000/svg" width="35" height="34" viewBox="0 0 35 34">
  <g id="Group_44" transform="translate(-339 -73)">
    <rect id="Rectangle_20" width="35" height="34" rx="10" transform="translate(339 73)" fill="#c4e4e8"/>
    <path id="Path_26" d="M29.651,10.8a.853.853,0,0,0-.465.135l-4.321,2.727a.427.427,0,0,0-.2.36v3.8a.427.427,0,0,0,.2.36L29.186,20.9a.9.9,0,0,0,.465.135h1.039a.425.425,0,0,0,.43-.425v-9.39a.428.428,0,0,0-.43-.425Z" transform="translate(336.249 74.181)" fill="#707070"/>
    <path id="Path_27" d="M13.273,21.787H4.6A2.477,2.477,0,0,1,2.25,19.22V11.567A2.473,2.473,0,0,1,4.6,9h8.673a2.473,2.473,0,0,1,2.346,2.567v7.647A2.468,2.468,0,0,1,13.273,21.787Z" transform="translate(343.854 74.708)" fill="#707070"/>
  </g>
</svg>
