<svg xmlns="http://www.w3.org/2000/svg" width="35" height="34" viewBox="0 0 35 34">
  <g id="Group_45" transform="translate(-296 -73)">
    <rect id="Rectangle_28" width="35" height="34" rx="10" transform="translate(296 73)" fill="#c4e4e8"/>
    <path id="Icon_ionic-ios-call" d="M19.591,16.678a13.061,13.061,0,0,0-2.728-1.826c-.818-.393-1.117-.385-1.7.032-.482.348-.793.672-1.348.551a8.042,8.042,0,0,1-2.708-2,7.984,7.984,0,0,1-2-2.708c-.117-.559.206-.866.551-1.348.417-.579.429-.878.032-1.7A12.8,12.8,0,0,0,7.864,4.95c-.6-.6-.729-.466-1.057-.348a6.012,6.012,0,0,0-.968.514A2.919,2.919,0,0,0,4.678,6.343c-.231.5-.5,1.425.862,3.846a21.459,21.459,0,0,0,3.773,5.032h0l0,0,0,0h0A21.543,21.543,0,0,0,14.353,19c2.421,1.36,3.348,1.093,3.846.862A2.869,2.869,0,0,0,19.425,18.7a6.012,6.012,0,0,0,.514-.968C20.057,17.407,20.19,17.273,19.591,16.678Z" transform="translate(301.033 77.824)" fill="#707070"/>
  </g>
</svg>
